<?xml version="1.0" standalone="no"?>
<!DOCTYPE svg PUBLIC "-//W3C//DTD SVG 20010904//EN"
 "http://www.w3.org/TR/2001/REC-SVG-20010904/DTD/svg10.dtd">
<svg version="1.0" xmlns="http://www.w3.org/2000/svg"
 width="225.000000pt" height="225.000000pt" viewBox="0 0 225.000000 225.000000"
 preserveAspectRatio="xMidYMid meet">

<g transform="translate(0.000000,225.000000) scale(0.100000,-0.100000)" fill="rgb(80,80,80)" stroke="none">
<path d="M1494 1946 c-8 -9 -7 -15 2 -23 9 -9 13 -9 17 1 8 20 -6 36 -19 22z"/>
<path d="M661 1941 c-10 -6 -9 -10 3 -14 8 -3 18 -2 21 3 8 13 -9 20 -24 11z"/>
<path d="M795 1934 c-9 -9 -14 -21 -12 -27 6 -18 33 -31 51 -24 21 8 21 53 0
61 -21 8 -20 8 -39 -10z m45 -24 c0 -13 -7 -20 -20 -20 -13 0 -20 7 -20 20 0
13 7 20 20 20 13 0 20 -7 20 -20z"/>
<path d="M1367 1894 c-15 -15 -7 -45 11 -42 9 2 17 12 17 22 0 20 -16 31 -28
20z m23 -24 c0 -5 -4 -10 -10 -10 -5 0 -10 5 -10 10 0 6 5 10 10 10 6 0 10 -4
10 -10z"/>
<path d="M615 1870 c3 -5 8 -10 11 -10 2 0 4 5 4 10 0 6 -5 10 -11 10 -5 0 -7
-4 -4 -10z"/>
<path d="M857 1864 c-8 -8 1 -24 14 -24 5 0 9 7 9 15 0 15 -12 20 -23 9z"/>
<path d="M910 1830 c0 -17 -7 -20 -40 -20 l-40 0 0 -249 c0 -278 -5 -261 74
-261 59 0 66 -13 14 -25 l-43 -11 -3 -167 c-2 -159 -3 -167 -22 -167 -14 0
-20 -7 -20 -24 0 -22 6 -24 113 -42 61 -10 120 -18 130 -18 13 0 17 -9 17 -38
0 -34 -3 -38 -24 -38 -23 0 -303 -113 -318 -128 -4 -4 82 -31 192 -60 l199
-52 146 72 c80 40 145 76 145 79 0 4 -17 10 -37 13 -21 4 -55 12 -75 17 l-38
10 0 89 0 90 28 5 c43 10 57 20 60 47 4 30 -24 62 -46 53 -35 -13 -42 13 -42
161 l0 144 40 0 40 0 0 239 0 240 -52 3 c-46 3 -53 6 -56 26 -3 19 -9 22 -48
22 -37 0 -44 -3 -44 -20 0 -18 -7 -20 -55 -20 -52 0 -55 1 -55 25 0 24 -2 25
-70 25 -63 0 -70 -2 -70 -20z m88 -17 c-10 -2 -26 -2 -35 0 -10 3 -2 5 17 5
19 0 27 -2 18 -5z m219 -9 c-3 -3 -12 -4 -19 -1 -8 3 -5 6 6 6 11 1 17 -2 13
-5z m-207 -254 l0 -210 -70 0 -70 0 0 210 0 210 70 0 70 0 0 -210z m262 200
l38 0 0 -199 0 -198 -67 -6 c-38 -4 -96 -7 -130 -7 l-63 0 0 211 0 212 92 -7
c50 -3 108 -6 130 -6z m-62 -589 c0 -111 -3 -141 -15 -151 -13 -11 -15 3 -15
118 0 76 -4 133 -10 137 -20 12 -10 35 15 35 l25 0 0 -139z m37 -73 c-1 -40
-3 -8 -3 72 0 80 2 112 3 73 2 -40 2 -106 0 -145z m-179 195 c-16 -2 -40 -2
-55 0 -16 2 -3 4 27 4 30 0 43 -2 28 -4z m10 -40 c-26 -2 -71 -2 -100 0 -29 2
-8 3 47 3 55 0 79 -1 53 -3z m62 -173 l0 -130 -26 -10 c-28 -11 -163 -14 -188
-4 -14 5 -16 27 -16 140 l0 134 115 0 115 0 0 -130z m130 -100 c0 -5 -13 -10
-30 -10 -16 0 -30 5 -30 10 0 6 14 10 30 10 17 0 30 -4 30 -10z m70 -10 c0 -5
-4 -10 -10 -10 -5 0 -10 5 -10 10 0 6 5 10 10 10 6 0 10 -4 10 -10z m-145 -30
c3 -5 1 -10 -4 -10 -6 0 -11 5 -11 10 0 6 2 10 4 10 3 0 8 -4 11 -10z m52
-162 c-2 -24 -4 -5 -4 42 0 47 2 66 4 43 2 -24 2 -62 0 -85z m-37 41 c0 -67
-1 -70 -22 -67 -21 3 -23 9 -26 65 -3 62 -1 65 41 72 4 0 7 -31 7 -70z m-83
-26 c-2 -16 -4 -3 -4 27 0 30 2 43 4 28 2 -16 2 -40 0 -55z m70 -90 l115 -27
-87 -44 -87 -43 -129 32 c-71 18 -126 36 -121 40 15 15 148 68 171 68 13 1 75
-11 138 -26z"/>
<path d="M1420 1815 c0 -8 5 -15 10 -15 6 0 10 7 10 15 0 8 -4 15 -10 15 -5 0
-10 -7 -10 -15z"/>
<path d="M624 1732 c-9 -5 -8 -11 2 -20 12 -11 14 -9 14 8 0 22 0 23 -16 12z"/>
<path d="M687 1634 c-8 -8 1 -24 14 -24 5 0 9 7 9 15 0 15 -12 20 -23 9z"/>
<path d="M631 1616 c-9 -10 -8 -16 4 -26 19 -16 41 1 32 24 -8 20 -21 20 -36
2z m24 -5 c3 -5 1 -12 -5 -16 -5 -3 -10 1 -10 9 0 18 6 21 15 7z"/>
<path d="M1430 1595 c-20 -25 -8 -50 25 -50 21 0 31 5 33 18 4 21 -14 47 -33
47 -7 0 -18 -7 -25 -15z m48 -18 c4 -20 -25 -34 -39 -20 -14 14 1 45 20 41 9
-2 17 -11 19 -21z"/>
<path d="M1511 1511 c-10 -6 -9 -10 3 -14 8 -3 18 -2 21 3 8 13 -9 20 -24 11z"/>
<path d="M718 1236 c-23 -17 -23 -42 -1 -55 37 -20 71 27 41 57 -15 15 -19 15
-40 -2z m42 -26 c0 -13 -7 -20 -20 -20 -13 0 -20 7 -20 20 0 13 7 20 20 20 13
0 20 -7 20 -20z"/>
<path d="M1404 1216 c-8 -8 -7 -15 0 -22 8 -8 15 -7 22 0 8 8 7 15 0 22 -8 8
-15 7 -22 0z"/>
<path d="M551 1188 c-1 -9 -9 -22 -18 -27 -16 -9 -16 -10 -1 -11 9 0 19 -8 21
-17 4 -17 5 -17 6 0 0 9 9 17 19 17 15 1 15 2 1 13 -9 7 -18 19 -22 27 -4 12
-6 12 -6 -2z"/>
<path d="M640 1135 c-10 -11 -10 -19 -2 -27 15 -15 44 -2 40 19 -4 23 -22 27
-38 8z m30 -9 c0 -3 -4 -8 -10 -11 -5 -3 -10 -1 -10 4 0 6 5 11 10 11 6 0 10
-2 10 -4z"/>
<path d="M1409 1104 c-9 -11 -9 -18 -1 -26 14 -14 42 -3 42 16 0 20 -27 27
-41 10z m31 -14 c0 -5 -4 -10 -10 -10 -5 0 -10 5 -10 10 0 6 5 10 10 10 6 0
10 -4 10 -10z"/>
<path d="M1480 1075 c0 -9 5 -15 11 -13 6 2 11 8 11 13 0 5 -5 11 -11 13 -6 2
-11 -4 -11 -13z"/>
<path d="M742 1031 c-8 -4 -12 -19 -10 -32 4 -29 45 -34 61 -7 19 30 -19 60
-51 39z m46 -24 c4 -20 -25 -34 -40 -19 -15 15 -1 44 19 40 10 -2 19 -11 21
-21z"/>
<path d="M1450 1015 c-18 -22 -1 -50 31 -50 20 0 24 5 24 30 0 23 -5 31 -21
33 -11 2 -27 -4 -34 -13z m48 -18 c4 -21 -27 -35 -38 -17 -12 19 0 42 19 38 9
-2 17 -11 19 -21z"/>
<path d="M696 963 c-11 -11 -6 -23 9 -23 8 0 15 4 15 9 0 13 -16 22 -24 14z"/>
<path d="M1522 905 c-11 -13 -10 -15 7 -15 14 0 19 5 15 15 -7 18 -6 18 -22 0z"/>
<path d="M674 846 c-8 -8 -7 -15 0 -22 8 -8 15 -7 22 0 8 8 7 15 0 22 -8 8
-15 7 -22 0z"/>
<path d="M785 750 c-4 -7 -3 -16 3 -22 14 -14 45 -2 40 15 -6 16 -34 21 -43 7z
m25 -10 c0 -5 -5 -10 -11 -10 -5 0 -7 5 -4 10 3 6 8 10 11 10 2 0 4 -4 4 -10z"/>
<path d="M1360 550 c0 -5 7 -10 15 -10 8 0 15 5 15 10 0 6 -7 10 -15 10 -8 0
-15 -4 -15 -10z"/>
<path d="M764 529 c-8 -14 8 -30 22 -21 9 5 8 10 -2 19 -9 9 -15 10 -20 2z"/>
<path d="M1324 515 c-4 -9 -2 -21 4 -27 15 -15 44 -1 40 19 -4 23 -36 29 -44
8z m33 -11 c-3 -3 -12 -4 -19 -1 -8 3 -5 6 6 6 11 1 17 -2 13 -5z"/>
<path d="M1464 516 c-8 -9 -7 -15 2 -23 9 -9 13 -9 17 1 8 20 -6 36 -19 22z"/>
<path d="M1151 461 c-23 -15 -5 -61 24 -61 28 0 43 33 25 55 -14 17 -29 19
-49 6z m47 -24 c4 -20 -25 -34 -40 -19 -15 15 -1 44 19 40 10 -2 19 -11 21
-21z"/>
<path d="M1034 406 c-8 -8 -7 -15 0 -22 8 -8 15 -7 22 0 8 8 7 15 0 22 -8 8
-15 7 -22 0z"/>
<path d="M1005 350 c-3 -5 -1 -10 4 -10 6 0 11 5 11 10 0 6 -2 10 -4 10 -3 0
-8 -4 -11 -10z"/>
</g>
</svg>
