<?xml version="1.0" standalone="no"?>
<!DOCTYPE svg PUBLIC "-//W3C//DTD SVG 20010904//EN"
 "http://www.w3.org/TR/2001/REC-SVG-20010904/DTD/svg10.dtd">
<svg version="1.0" xmlns="http://www.w3.org/2000/svg"
 width="196.000000pt" height="196.000000pt" viewBox="0 0 196.000000 196.000000"
 preserveAspectRatio="xMidYMid meet">

<g transform="translate(0.000000,196.000000) scale(0.100000,-0.100000)"
fill="rgb(80,80,80)" stroke="none">
<path d="M1195 1810 c-4 -6 -3 -16 3 -22 13 -13 23 4 13 21 -7 10 -10 10 -16
1z"/>
<path d="M1324 1796 c-11 -28 1 -51 25 -51 32 0 49 28 32 49 -17 20 -50 21
-57 2z m43 -12 c8 -21 -13 -42 -28 -27 -13 13 -5 43 11 43 6 0 13 -7 17 -16z"/>
<path d="M1146 1741 c-4 -5 -2 -12 3 -15 5 -4 12 -2 15 3 4 5 2 12 -3 15 -5 4
-12 2 -15 -3z"/>
<path d="M1390 1715 c0 -8 5 -15 10 -15 6 0 10 7 10 15 0 8 -4 15 -10 15 -5 0
-10 -7 -10 -15z"/>
<path d="M1225 1687 c-10 -8 -25 -27 -34 -44 -9 -16 -25 -46 -35 -66 l-20 -37
30 -58 c30 -57 56 -74 78 -52 8 8 6 15 -8 25 -11 8 -16 21 -13 30 4 9 -1 20
-13 27 -25 16 -25 40 -1 62 10 9 21 31 25 47 8 41 46 38 57 -5 5 -16 17 -37
28 -48 26 -24 26 -34 0 -48 -13 -7 -19 -19 -17 -33 2 -12 -4 -27 -12 -34 -11
-9 -12 -15 -4 -23 15 -15 45 -9 54 10 4 8 15 29 24 47 22 42 20 86 -4 108 -10
9 -24 33 -30 51 -17 51 -65 69 -105 41z"/>
<path d="M1045 1570 c-4 -6 -3 -16 3 -22 13 -13 23 4 13 21 -7 10 -10 10 -16
1z"/>
<path d="M1633 1392 c-7 -5 -7 -10 1 -18 9 -8 15 -7 23 2 9 9 9 13 -1 17 -7 3
-18 2 -23 -1z"/>
<path d="M1188 1368 c-3 -7 -18 -88 -34 -180 -19 -117 -32 -168 -41 -168 -10
0 -13 26 -13 110 l0 111 -72 -58 c-40 -31 -102 -82 -138 -112 l-65 -54 -3 76
-3 76 -82 -48 c-45 -26 -99 -58 -121 -71 -21 -13 -55 -26 -75 -29 l-36 -6 -3
-277 -2 -277 -38 -3 c-30 -2 -38 -7 -40 -25 l-3 -23 566 0 566 0 -3 22 c-3 20
-10 23 -50 26 l-48 3 0 280 0 279 -25 0 c-14 0 -25 1 -25 3 -1 1 -16 81 -34
177 l-32 175 -71 3 c-51 2 -72 -1 -75 -10z m130 -162 c12 -69 25 -138 28 -155
l7 -31 -92 0 c-83 0 -92 2 -87 18 2 9 15 79 28 155 l23 137 35 0 36 0 22 -124z
m-258 -126 l0 -60 -81 0 -81 0 73 60 c41 32 77 59 82 60 4 0 7 -27 7 -60z
m-290 -30 c0 -30 0 -30 -57 -30 l-58 0 50 30 c28 16 53 30 58 30 4 0 7 -13 7
-30z m630 -335 l0 -255 -40 0 -40 0 0 135 0 135 -190 0 -190 0 0 -135 0 -135
-195 0 -195 0 0 255 0 255 425 0 425 0 0 -255z m-120 -145 l0 -110 -145 0
-145 0 0 110 0 110 145 0 145 0 0 -110z"/>
<path d="M1108 883 c-70 -3 -78 -6 -78 -23 0 -19 8 -20 150 -20 l150 0 0 25
c0 28 2 27 -222 18z"/>
<path d="M630 860 c0 -19 7 -20 145 -20 138 0 145 1 145 20 0 19 -7 20 -145
20 -138 0 -145 -1 -145 -20z"/>
<path d="M630 645 l0 -85 115 0 115 0 0 85 0 85 -115 0 -115 0 0 -85z m180 -5
l0 -40 -70 0 -70 0 0 40 0 40 70 0 70 0 0 -40z"/>
<path d="M803 1324 c-8 -20 8 -48 30 -52 22 -5 42 35 26 54 -16 19 -48 18 -56
-2z m44 -10 c8 -20 -8 -36 -26 -25 -15 10 -8 41 9 41 6 0 13 -7 17 -16z"/>
<path d="M1500 1320 c0 -13 7 -20 20 -20 13 0 20 7 20 20 0 13 -7 20 -20 20
-13 0 -20 -7 -20 -20z m30 0 c0 -5 -4 -10 -10 -10 -5 0 -10 5 -10 10 0 6 5 10
10 10 6 0 10 -4 10 -10z"/>
<path d="M640 1273 c0 -6 -8 -14 -17 -16 -10 -3 2 -5 27 -5 25 0 36 3 25 5
-11 3 -23 10 -27 17 -6 8 -8 8 -8 -1z"/>
<path d="M1566 1273 c-11 -11 -6 -23 9 -23 8 0 15 4 15 9 0 13 -16 22 -24 14z"/>
<path d="M547 1124 c-11 -11 5 -34 24 -34 12 0 19 7 19 20 0 19 -28 28 -43 14z
m33 -14 c0 -5 -4 -10 -10 -10 -5 0 -10 5 -10 10 0 6 5 10 10 10 6 0 10 -4 10
-10z"/>
<path d="M320 985 c-18 -22 -1 -50 31 -50 20 0 24 5 24 30 0 23 -5 31 -21 33
-11 2 -27 -4 -34 -13z m47 -11 c9 -23 -13 -40 -32 -24 -12 10 -13 16 -4 26 15
18 28 18 36 -2z"/>
<path d="M1495 980 c-4 -6 3 -10 14 -10 25 0 27 6 6 13 -8 4 -17 2 -20 -3z"/>
<path d="M280 915 c0 -8 5 -15 10 -15 6 0 10 7 10 15 0 8 -4 15 -10 15 -5 0
-10 -7 -10 -15z"/>
<path d="M1500 860 c0 -13 7 -20 20 -20 13 0 20 7 20 20 0 13 -7 20 -20 20
-13 0 -20 -7 -20 -20z m30 0 c0 -5 -4 -10 -10 -10 -5 0 -10 5 -10 10 0 6 5 10
10 10 6 0 10 -4 10 -10z"/>
<path d="M1577 854 c-8 -8 1 -24 14 -24 5 0 9 7 9 15 0 15 -12 20 -23 9z"/>
<path d="M250 796 c0 -9 30 -14 35 -6 4 6 -3 10 -14 10 -12 0 -21 -2 -21 -4z"/>
<path d="M1552 791 c-8 -4 -12 -19 -10 -32 4 -29 45 -34 61 -7 19 30 -19 60
-51 39z m37 -15 c9 -10 8 -16 -4 -26 -19 -16 -41 1 -32 24 8 20 21 20 36 2z"/>
<path d="M370 700 c0 -13 7 -20 20 -20 13 0 20 7 20 20 0 13 -7 20 -20 20 -13
0 -20 -7 -20 -20z m30 0 c0 -5 -4 -10 -10 -10 -5 0 -10 5 -10 10 0 6 5 10 10
10 6 0 10 -4 10 -10z"/>
<path d="M1617 676 c-8 -20 6 -36 19 -22 8 9 7 15 -2 23 -9 9 -13 9 -17 -1z"/>
<path d="M354 416 c-8 -8 -7 -15 0 -22 8 -8 15 -7 22 0 8 8 7 15 0 22 -8 8
-15 7 -22 0z"/>
<path d="M624 369 c-8 -14 8 -30 22 -21 9 5 8 10 -2 19 -9 9 -15 10 -20 2z"/>
<path d="M820 365 c-6 -8 -10 -22 -8 -32 4 -24 47 -24 62 0 9 15 7 21 -8 33
-25 18 -31 18 -46 -1z m43 -11 c9 -10 -4 -34 -18 -34 -17 0 -28 17 -20 30 7
11 28 13 38 4z"/>
<path d="M1060 370 c0 -5 5 -10 10 -10 6 0 10 5 10 10 0 6 -4 10 -10 10 -5 0
-10 -4 -10 -10z"/>
<path d="M1020 340 c-13 -8 -13 -12 3 -27 15 -16 19 -16 27 -3 18 28 -2 48
-30 30z m25 -10 c3 -5 -1 -10 -10 -10 -9 0 -13 5 -10 10 3 6 8 10 10 10 2 0 7
-4 10 -10z"/>
<path d="M1154 336 c-8 -8 -7 -15 0 -22 8 -8 15 -7 22 0 8 8 7 15 0 22 -8 8
-15 7 -22 0z"/>
</g>
</svg>
