<?xml version="1.0" standalone="no"?>
<!DOCTYPE svg PUBLIC "-//W3C//DTD SVG 20010904//EN"
 "http://www.w3.org/TR/2001/REC-SVG-20010904/DTD/svg10.dtd">
<svg version="1.0" xmlns="http://www.w3.org/2000/svg"
 width="202.000000pt" height="202.000000pt" viewBox="0 0 202.000000 202.000000"
 preserveAspectRatio="xMidYMid meet">

<g transform="translate(0.000000,202.000000) scale(0.100000,-0.100000)"
fill="rgb(80,80,80)" stroke="none">
<path d="M1276 1892 c-2 -4 -1 -14 5 -22 7 -12 9 -10 9 8 0 23 -5 28 -14 14z"/>
<path d="M1162 1827 c-15 -17 1 -42 23 -33 18 6 17 37 -1 43 -6 2 -16 -2 -22
-10z m28 -11 c0 -3 -4 -8 -10 -11 -5 -3 -10 -1 -10 4 0 6 5 11 10 11 6 0 10
-2 10 -4z"/>
<path d="M1217 1804 c-8 -8 1 -24 14 -24 5 0 9 7 9 15 0 15 -12 20 -23 9z"/>
<path d="M1575 1740 c-4 -6 3 -10 14 -10 25 0 27 6 6 13 -8 4 -17 2 -20 -3z"/>
<path d="M942 1718 c-33 -33 17 -88 53 -58 25 21 15 64 -15 68 -14 2 -31 -3
-38 -10z m53 -8 c9 -15 -4 -50 -19 -50 -20 0 -37 25 -30 44 7 18 39 22 49 6z"/>
<path d="M1141 1681 c-10 -6 -9 -10 3 -14 8 -3 18 -2 21 3 8 13 -9 20 -24 11z"/>
<path d="M1293 1660 c-109 -197 -207 -269 -380 -278 -102 -5 -116 -13 -116
-63 0 -38 13 -50 60 -58 38 -6 38 -6 41 -60 2 -39 -1 -58 -13 -71 -19 -21 -13
-55 12 -64 9 -4 62 15 122 42 l106 48 0 36 0 36 75 4 c114 7 190 56 238 153
36 74 7 87 -53 24 -39 -41 -120 -99 -138 -99 -5 0 14 20 42 46 50 45 121 165
121 205 0 32 -37 23 -56 -13 -9 -17 -39 -56 -68 -86 -62 -65 -108 -94 -52 -32
49 54 96 156 99 211 3 53 -17 62 -40 19z m-35 -141 c-30 -54 -121 -139 -149
-139 -16 0 -7 10 37 43 33 24 74 65 93 90 43 58 50 60 19 6z m5 -139 c-23 -22
-48 -40 -55 -39 -7 0 -2 8 12 17 13 9 36 27 50 39 42 38 38 25 -7 -17z m-103
-60 c0 -16 -7 -20 -32 -20 -17 0 -40 -7 -50 -17 -22 -20 -24 -71 -3 -79 8 -4
15 -10 15 -14 0 -6 -67 -39 -137 -67 -10 -4 -13 13 -13 68 0 85 -15 109 -67
109 -26 0 -33 4 -33 20 0 19 7 20 160 20 153 0 160 -1 160 -20z"/>
<path d="M1503 1654 c-15 -39 38 -67 60 -32 8 12 7 21 -2 32 -17 21 -50 20
-58 0z m44 -10 c8 -21 -13 -42 -28 -27 -13 13 -5 43 11 43 6 0 13 -7 17 -16z"/>
<path d="M1537 1564 c-8 -8 1 -24 14 -24 5 0 9 7 9 15 0 15 -12 20 -23 9z"/>
<path d="M682 1543 c4 -22 43 -25 43 -3 0 8 -11 16 -23 18 -19 3 -23 0 -20
-15z m28 -3 c0 -5 -4 -10 -10 -10 -5 0 -10 5 -10 10 0 6 5 10 10 10 6 0 10 -4
10 -10z"/>
<path d="M1465 1550 c-8 -13 3 -30 20 -30 14 0 27 24 18 34 -10 9 -31 7 -38
-4z m25 -10 c0 -5 -4 -10 -10 -10 -5 0 -10 5 -10 10 0 6 5 10 10 10 6 0 10 -4
10 -10z"/>
<path d="M765 1540 c-4 -6 3 -10 14 -10 25 0 27 6 6 13 -8 4 -17 2 -20 -3z"/>
<path d="M1515 1480 c-8 -13 9 -20 24 -11 10 6 9 10 -3 14 -8 3 -18 2 -21 -3z"/>
<path d="M574 1456 c-8 -8 -7 -15 0 -22 8 -8 15 -7 22 0 8 8 7 15 0 22 -8 8
-15 7 -22 0z"/>
<path d="M592 1329 c2 -6 8 -10 13 -10 5 0 11 4 13 10 2 6 -4 11 -13 11 -9 0
-15 -5 -13 -11z"/>
<path d="M634 1296 c-11 -28 1 -51 25 -51 32 0 49 28 32 49 -17 20 -50 21 -57
2z m49 -10 c8 -19 -15 -37 -32 -26 -17 10 -7 40 13 40 7 0 16 -6 19 -14z"/>
<path d="M1522 1268 c-7 -7 -12 -22 -12 -35 0 -18 6 -23 24 -23 13 0 29 7 36
15 9 10 9 15 1 15 -6 0 -11 -4 -11 -10 0 -5 -9 -10 -20 -10 -14 0 -20 7 -20
21 0 17 5 20 25 17 28 -6 34 6 9 16 -20 8 -18 8 -32 -6z"/>
<path d="M1372 1179 c2 -6 8 -10 13 -10 5 0 11 4 13 10 2 6 -4 11 -13 11 -9 0
-15 -5 -13 -11z"/>
<path d="M284 1136 c-8 -8 -7 -15 0 -22 8 -8 15 -7 22 0 8 8 7 15 0 22 -8 8
-15 7 -22 0z"/>
<path d="M1315 1130 c-4 -7 -3 -16 3 -22 14 -14 45 -2 40 15 -6 16 -34 21 -43
7z m25 -10 c0 -5 -4 -10 -10 -10 -5 0 -10 5 -10 10 0 6 5 10 10 10 6 0 10 -4
10 -10z"/>
<path d="M978 1072 c-43 -20 -78 -40 -78 -45 0 -5 -7 -24 -16 -43 -17 -36 -14
-61 11 -70 15 -6 169 54 213 82 12 8 22 24 22 35 0 27 -40 79 -59 78 -9 0 -51
-17 -93 -37z m100 -32 c19 -1 -15 -21 -94 -56 l-51 -22 5 23 c3 17 19 30 61
48 31 13 58 21 59 16 2 -5 11 -9 20 -9z"/>
<path d="M1439 1059 c-10 -6 -7 -9 14 -9 29 0 35 5 14 13 -8 3 -20 1 -28 -4z"/>
<path d="M495 1010 c-4 -7 -3 -16 3 -22 14 -14 45 -2 40 15 -6 16 -34 21 -43
7z m35 -10 c0 -5 -7 -10 -15 -10 -8 0 -15 5 -15 10 0 6 7 10 15 10 8 0 15 -4
15 -10z"/>
<path d="M671 938 c-20 -66 -35 -78 -103 -78 l-58 0 0 -230 0 -230 485 0 485
0 0 230 0 230 -58 0 c-68 0 -83 12 -103 78 l-12 42 -79 0 -78 0 0 -168 c0
-196 -8 -222 -80 -259 -57 -30 -103 -29 -155 2 -67 39 -75 66 -75 259 l0 166
-78 0 -79 0 -12 -42z m119 -135 c0 -163 10 -205 58 -255 34 -36 103 -68 146
-68 44 0 119 35 151 72 46 50 55 91 55 251 l0 137 34 0 c30 0 36 -4 46 -34 17
-53 48 -86 78 -86 15 0 37 -3 50 -6 22 -6 22 -8 22 -185 l0 -179 -435 0 -435
0 0 179 c0 177 0 179 23 185 12 3 34 6 49 6 30 0 61 33 78 86 10 30 16 34 46
34 l34 0 0 -137z"/>
<path d="M629 755 c0 0 -3 -19 -5 -42 l-5 -43 45 0 46 0 0 45 0 45 -40 -2
c-22 -2 -40 -3 -41 -3z m51 -40 c0 -8 -7 -15 -15 -15 -8 0 -15 7 -15 15 0 8 7
15 15 15 8 0 15 -7 15 -15z"/>
<path d="M1280 716 l0 -46 46 0 45 0 -4 43 c-4 41 -4 42 -45 45 l-42 3 0 -45z
m60 -1 c0 -8 -7 -15 -15 -15 -8 0 -15 7 -15 15 0 8 7 15 15 15 8 0 15 -7 15
-15z"/>
<path d="M680 590 l0 -40 40 0 40 0 0 40 0 40 -40 0 -40 0 0 -40z m60 0 c0
-13 -7 -20 -20 -20 -13 0 -20 7 -20 20 0 13 7 20 20 20 13 0 20 -7 20 -20z"/>
<path d="M1230 591 c0 -38 0 -38 40 -37 39 1 40 1 40 38 0 38 0 38 -40 38 -40
0 -40 0 -40 -39z m60 -1 c0 -13 -7 -20 -20 -20 -13 0 -20 7 -20 20 0 13 7 20
20 20 13 0 20 -7 20 -20z"/>
<path d="M590 525 c0 -33 2 -35 30 -33 27 2 30 6 30 35 0 30 -3 33 -30 33 -28
0 -30 -3 -30 -35z m40 5 c0 -5 -4 -10 -10 -10 -5 0 -10 5 -10 10 0 6 5 10 10
10 6 0 10 -4 10 -10z"/>
<path d="M1340 531 c0 -21 6 -30 23 -35 41 -11 47 -7 47 29 0 33 -2 35 -35 35
-32 0 -35 -3 -35 -29z m40 -1 c0 -5 -4 -10 -10 -10 -5 0 -10 5 -10 10 0 6 5
10 10 10 6 0 10 -4 10 -10z"/>
<path d="M990 921 c-55 -24 -86 -44 -90 -56 -3 -11 -12 -32 -19 -47 -16 -31
-2 -58 28 -58 24 0 204 79 213 93 13 20 9 57 -6 63 -8 3 -16 14 -19 25 -7 24
-7 24 -107 -20z m75 -35 c12 -11 3 -18 -56 -44 -68 -31 -69 -31 -69 -9 0 17
12 27 53 44 63 27 56 26 72 9z"/>
<path d="M361 874 c0 -11 3 -14 6 -6 3 7 2 16 -1 19 -3 4 -6 -2 -5 -13z"/>
<path d="M1641 844 c0 -11 3 -14 6 -6 3 7 2 16 -1 19 -3 4 -6 -2 -5 -13z"/>
<path d="M299 824 c-16 -20 -1 -48 29 -52 25 -4 39 32 22 53 -16 19 -34 19
-51 -1z m46 -20 c0 -10 -8 -20 -18 -22 -22 -4 -35 27 -16 39 20 12 34 5 34
-17z"/>
<path d="M234 802 c-9 -5 -8 -11 2 -20 12 -11 14 -9 14 8 0 22 0 23 -16 12z"/>
<path d="M1580 800 c0 -5 10 -10 23 -10 18 0 19 2 7 10 -19 13 -30 13 -30 0z"/>
<path d="M983 764 c-97 -43 -100 -49 -48 -134 53 -88 75 -87 130 1 31 51 36
65 33 111 -2 38 -7 54 -18 55 -8 2 -52 -14 -97 -33z m50 -107 c-15 -26 -31
-47 -34 -47 -7 0 -48 72 -47 85 0 6 24 19 52 31 l51 20 3 -21 c2 -12 -10 -43
-25 -68z"/>
<path d="M250 720 c0 -5 5 -10 11 -10 5 0 7 5 4 10 -3 6 -8 10 -11 10 -2 0 -4
-4 -4 -10z"/>
<path d="M1642 459 c2 -6 8 -10 13 -10 5 0 11 4 13 10 2 6 -4 11 -13 11 -9 0
-15 -5 -13 -11z"/>
<path d="M362 347 c-15 -17 1 -42 23 -33 18 6 17 37 -1 43 -6 2 -16 -2 -22
-10z m28 -11 c0 -3 -4 -8 -10 -11 -5 -3 -10 -1 -10 4 0 6 5 11 10 11 6 0 10
-2 10 -4z"/>
<path d="M453 342 c-8 -5 -7 -11 2 -19 10 -10 14 -9 19 2 6 17 -5 26 -21 17z"/>
<path d="M1605 331 c-6 -11 9 -23 19 -14 9 9 7 23 -3 23 -6 0 -12 -4 -16 -9z"/>
<path d="M1535 279 c-5 -13 -2 -27 8 -36 24 -24 59 -8 55 25 -4 36 -53 45 -63
11z m52 -5 c8 -22 -18 -37 -36 -20 -7 8 -10 19 -7 25 10 16 36 13 43 -5z"/>
<path d="M1407 255 c-5 -11 0 -15 16 -15 12 0 18 4 12 8 -5 4 -13 11 -16 15
-4 4 -9 1 -12 -8z"/>
</g>
</svg>
